TITLE ""
FILE "Step3_Track51.mp3" MP3
  TRACK 01 AUDIO
    TITLE "Step3_Track51_01"
    INDEX 01 00:00:00
  TRACK 02 AUDIO
    TITLE "Step3_Track51_02"
    INDEX 01 00:00:24
  TRACK 03 AUDIO
    TITLE "Step3_Track51_03"
    INDEX 01 00:01:69
  TRACK 04 AUDIO
    TITLE "Step3_Track51_04"
    INDEX 01 00:02:48
  TRACK 05 AUDIO
    TITLE "Step3_Track51_05"
    INDEX 01 00:03:42
  TRACK 06 AUDIO
    TITLE "Step3_Track51_06"
    INDEX 01 00:03:67
  TRACK 07 AUDIO
    TITLE "Step3_Track51_07"
    INDEX 01 00:06:42
  TRACK 08 AUDIO
    TITLE "Step3_Track51_08"
    INDEX 01 00:06:72
  TRACK 09 AUDIO
    TITLE "Step3_Track51_09"
    INDEX 01 00:07:71
  TRACK 10 AUDIO
    TITLE "Step3_Track51_10"
    INDEX 01 00:08:06
  TRACK 11 AUDIO
    TITLE "Step3_Track51_11"
    INDEX 01 00:11:57
  TRACK 12 AUDIO
    TITLE "Step3_Track51_12"
    INDEX 01 00:12:02
  TRACK 13 AUDIO
    TITLE "Step3_Track51_13"
    INDEX 01 00:13:03
  TRACK 14 AUDIO
    TITLE "Step3_Track51_14"
    INDEX 01 00:13:05
  TRACK 15 AUDIO
    TITLE "Step3_Track51_15"
    INDEX 01 00:15:57
  TRACK 16 AUDIO
    TITLE "Step3_Track51_16"
    INDEX 01 00:16:17
  TRACK 17 AUDIO
    TITLE "Step3_Track51_17"
    INDEX 01 00:17:17
  TRACK 18 AUDIO
    TITLE "Step3_Track51_18"
    INDEX 01 00:17:26
  TRACK 19 AUDIO
    TITLE "Step3_Track51_19"
    INDEX 01 00:22:39
  TRACK 20 AUDIO
    TITLE "Step3_Track51_20"
    INDEX 01 00:22:63
  TRACK 21 AUDIO
    TITLE "Step3_Track51_21"
    INDEX 01 00:23:56
  TRACK 22 AUDIO
    TITLE "Step3_Track51_22"
    INDEX 01 00:23:62
  TRACK 23 AUDIO
    TITLE "Step3_Track51_23"
    INDEX 01 00:26:70
  TRACK 24 AUDIO
    TITLE "Step3_Track51_24"
    INDEX 01 00:27:05
  TRACK 25 AUDIO
    TITLE "Step3_Track51_25"
    INDEX 01 00:28:05
  TRACK 26 AUDIO
    TITLE "Step3_Track51_26"
    INDEX 01 00:28:07
  TRACK 27 AUDIO
    TITLE "Step3_Track51_27"
    INDEX 01 00:30:64
  TRACK 28 AUDIO
    TITLE "Step3_Track51_28"
    INDEX 01 00:31:03
  TRACK 29 AUDIO
    TITLE "Step3_Track51_29"
    INDEX 01 00:32:06
  TRACK 30 AUDIO
    TITLE "Step3_Track51_30"
    INDEX 01 00:32:14
  TRACK 31 AUDIO
    TITLE "Step3_Track51_31"
    INDEX 01 00:36:55
  TRACK 32 AUDIO
    TITLE "Step3_Track51_32"
    INDEX 01 00:36:75
  TRACK 33 AUDIO
    TITLE "Step3_Track51_33"
    INDEX 01 00:37:66
  TRACK 34 AUDIO
    TITLE "Step3_Track51_34"
    INDEX 01 00:37:68
  TRACK 35 AUDIO
    TITLE "Step3_Track51_35"
    INDEX 01 00:40:67
  TRACK 36 AUDIO
    TITLE "Step3_Track51_36"
    INDEX 01 00:41:15
  TRACK 37 AUDIO
    TITLE "Step3_Track51_37"
    INDEX 01 00:42:20
  TRACK 38 AUDIO
    TITLE "Step3_Track51_38"
    INDEX 01 00:42:22
  TRACK 39 AUDIO
    TITLE "Step3_Track51_39"
    INDEX 01 00:45:60
  TRACK 40 AUDIO
    TITLE "Step3_Track51_40"
    INDEX 01 00:45:72
  TRACK 41 AUDIO
    TITLE "Step3_Track51_41"
    INDEX 01 00:46:69
  TRACK 42 AUDIO
    TITLE "Step3_Track51_42"
    INDEX 01 00:47:08
  TRACK 43 AUDIO
    TITLE "Step3_Track51_43"
    INDEX 01 00:52:74
